<svg xmlns="http://www.w3.org/2000/svg" version="1.1" xmlns:xlink="http://www.w3.org/1999/xlink" xmlns:svgjs="http://svgjs.dev/svgjs" style="overflow: hidden; height: 85vh;" viewBox="0 0 1920 1080" class="overflow-hidden rounded-md drop-shadow-lg transition duration-300"><rect width="1920" height="1080" fill="#385ac5"/><g clip-path="url(&quot;#SvgjsClipPath2706&quot;)"><g transform="matrix(-2.112515728529184e-16,-1.15,1.15,-2.112515728529184e-16,289.6730117797854,1587.273963546753)"><path d="M0,-1080C-5.105508691027109,-980.4589238693369,-28.695958092526983,-648.0862533123781,-30.633052146162655,-482.7535432160217C-32.57014619979833,-317.4208331196653,-0.6606347610975352,-266.9992755046213,-11.622564321814039,-88.00373942186177C-22.584493882530545,90.9917966608978,-114.03419065950732,403.5296865732946,-96.40462951046167,591.2196732805357C-78.77506836141603,778.9096599877769,76.05183836881417,872.443194137234,94.15480257245983,1038.1361808215852C112.25776677610548,1203.8291675059365,27.905622806822187,1398.4002901902409,12.213155711412213,1585.3775933866434C-3.479311383997759,1772.354896583046,2.0355259519020357,2064.229598897774,0,2160L 1920 2160 L 1920 -1080 Z" fill="url(&quot;#SvgjsLinearGradient2697&quot;)"/><path d="M213.33333333333331,-1080C208.92893639626232,-937.0470126097432,175.66025105418547,-482.1575471540524,186.90695171090735,-222.2820756584594C198.15365236762923,37.593395837133585,281.7147396888719,212.9567756947007,280.8135372736646,479.2528289735577C279.91233485845737,745.5488822524147,192.74643787638587,1095.3697155102757,181.49973721966398,1375.4942440146826C170.2530365629421,1655.6187725190896,208.0277339810551,2029.2490406691138,213.33333333333331,2160L 1920 2160 L 1920 -1080 Z" fill="url(&quot;#SvgjsLinearGradient2698&quot;)"/><path d="M426.66666666666663,-1080C439.0942726890022,-1007.364980279784,515.7577506219279,-807.0088914899329,501.23230280068015,-644.1898816787046C486.7068549794324,-481.37087186747635,347.5344683859007,-255.04412650871058,339.51397973918023,-103.08594113263032C331.49349109245975,48.87224424344993,432.81423304043255,106.95967525479975,453.1093709203574,267.5592305777768C473.4045088002822,428.15878590075386,469.49961403496036,687.0748401101145,461.28480701872934,860.5113908052322C453.0700000024983,1033.94794150035,407.3802605724738,1173.8770631598484,403.82052882297137,1308.1785347484833C400.26079707346895,1442.4800063371183,436.11872688109884,1524.349976128456,439.9264165217147,1666.3202203370422C443.7341061623306,1808.2904645456283,428.8766249758413,2077.72003672284,426.66666666666663,2160L 1920 2160 L 1920 -1080 Z" fill="url(&quot;#SvgjsLinearGradient2699&quot;)"/><path d="M640,-1080C637.7358758909705,-958.0400970730245,613.9337721325936,-580.3219892438213,626.4152553458234,-348.24058243814716C638.8967385590532,-116.15917563247294,707.0186475597868,120.41429771330237,714.8888992793787,312.48844083404526C722.7591509989707,504.5625839547881,688.1208900876977,610.2494175823274,673.636765663375,804.2042762863103C659.1526412390522,998.1591349902933,633.5902803440042,1250.251639105661,627.9841527334418,1476.2175930579426C622.3780251228793,1702.1835470102242,637.9973587889069,2046.0362655096571,640,2160L 1920 2160 L 1920 -1080 Z" fill="url(&quot;#SvgjsLinearGradient2700&quot;)"/><path d="M853.3333333333333,-1080C841.2703959929252,-968.3895842222305,786.6981583846763,-637.1705518621892,780.9557092908844,-410.33750533338264C775.2132601970926,-183.50445880457607,798.0616253526947,63.229137282041364,818.8786387705825,280.99827917283926C839.6956521884703,498.76742106363713,887.0646221282925,680.1928143219012,905.8577897982113,896.2773460114049C924.6509574681302,1112.3618777009087,940.3917208675751,1366.885026978429,931.6376447900955,1577.5054693098616C922.8835687126158,1788.1259116412941,866.3840519094603,2062.91757821831,853.3333333333333,2160L 1920 2160 L 1920 -1080 Z" fill="url(&quot;#SvgjsLinearGradient2701&quot;)"/><path d="M1066.6666666666667,-1080C1083.1963219476909,-1011.5705073097214,1173.4557685017671,-839.2263933362693,1165.844598352811,-669.4230438583281C1158.233428203855,-499.61969438038693,1031.9266052815008,-219.18916429407292,1020.9996457729302,-61.17990313235279C1010.0726862643596,96.82935802936734,1098.9791377918823,122.25185654789564,1100.2828413013879,278.6325231119926C1101.5865448108934,435.0131896760896,1017.7077220162935,734.2210438744753,1028.821866829963,877.1040962522289C1039.9360116436326,1019.9871486299826,1153.9789211843445,989.7802358190552,1166.967710183405,1135.9308373785148C1179.9564991824654,1282.0814389379743,1123.471441410449,1583.3295118387389,1106.754600824326,1754.0077056089865C1090.037760238203,1924.6858993792341,1073.3479890262765,2092.334617601498,1066.6666666666667,2160L 1920 2160 L 1920 -1080 Z" fill="url(&quot;#SvgjsLinearGradient2702&quot;)"/><path d="M1280,-1080C1268.4753672833708,-974.8764240231061,1198.2606983705018,-620.0948020425446,1210.852203700225,-449.25854413863675C1223.443709029948,-278.42228623472886,1348.459599917233,-223.67121900747736,1355.549031978339,-54.98245257655278C1362.638464039445,113.70631385437179,1252.8810124485262,392.04110409117493,1253.3887960668612,562.8740544469107C1253.8965796851962,733.7070048026465,1365.5891517040127,776.621128383736,1358.5957336883487,970.015249557862C1351.6023156726847,1163.409370731988,1224.5275769209345,1524.9079897513102,1211.4282879728764,1723.2387814916665C1198.3289990248184,1921.5695732320228,1268.5713813288128,2087.2064635819443,1280,2160L 1920 2160 L 1920 -1080 Z" fill="url(&quot;#SvgjsLinearGradient2703&quot;)"/><path d="M1493.3333333333333,-1080C1488.1635948747141,-1013.955260556734,1446.4232962325434,-835.0113905691262,1462.3149025816185,-683.7315633404035C1478.2065089306936,-532.4517361116807,1567.9431244434686,-309.1438860157382,1588.6829714277842,-172.3210366276632C1609.4228184120998,-35.49818723958825,1613.501124743263,33.40878029886517,1586.7539844875125,137.2055329880463C1560.006844231762,241.0022856772274,1459.2569959430716,318.61279492383187,1428.2001298932807,450.4594795074235C1397.1432638434899,582.3061640910151,1375.370223222296,766.5176619489441,1400.4127881887675,928.2856404895963C1425.455353155239,1090.0536190302485,1570.4411612657311,1274.0965045422738,1578.4555196921094,1421.0673507513368C1586.4698781184877,1568.0381969603998,1462.6859698068338,1686.95527620253,1448.4989387470378,1810.110717743974C1434.3119076872417,1933.2661592854179,1485.8609342356174,2101.685119623996,1493.3333333333333,2160L 1920 2160 L 1920 -1080 Z" fill="url(&quot;#SvgjsLinearGradient2704&quot;)"/><path d="M1706.6666666666665,-1080C1713.1167587488733,-992.6020843127551,1736.97282172102,-714.9045316525625,1745.367219159907,-555.6125058765308C1753.7616165987943,-396.32048010049914,1779.400774061834,-283.7739931364767,1757.0330512999894,-124.24784534380984C1734.6653285381449,35.278302448857005,1621.3335315526292,253.3754770870651,1611.16088258884,401.54438087947034C1600.9882336250507,549.7132846718756,1677.0595281751787,607.1476680080168,1695.9971575172538,764.7655774106216C1714.9347868593288,922.3834868132265,1730.8345756898268,1184.2652036011411,1724.7866586412906,1347.251837295099C1718.7387415927544,1510.2384709890569,1662.7296538884743,1607.2273524568855,1659.709655226037,1742.6853795743689C1656.6896565635998,1878.1434066918523,1698.8404980932282,2090.447563262395,1706.6666666666665,2160L 1920 2160 L 1920 -1080 Z" fill="url(&quot;#SvgjsLinearGradient2705&quot;)"/></g></g><defs><linearGradient x1="0.1" y1="0" x2="0" y2="1" id="SvgjsLinearGradient2697"><stop stop-color="#385ac5" offset="0"/><stop stop-color="#3871c5" offset="0"/></linearGradient><linearGradient x1="0.1" y1="0" x2="0" y2="1" id="SvgjsLinearGradient2698"><stop stop-color="#3353b5" offset="0"/><stop stop-color="#3369b5" offset="0.1111111111111111"/></linearGradient><linearGradient x1="0.1" y1="0" x2="0" y2="1" id="SvgjsLinearGradient2699"><stop stop-color="#2f4ba5" offset="0"/><stop stop-color="#2f5fa5" offset="0.2222222222222222"/></linearGradient><linearGradient x1="0.1" y1="0" x2="0" y2="1" id="SvgjsLinearGradient2700"><stop stop-color="#2a4495" offset="0"/><stop stop-color="#2a5695" offset="0.3333333333333333"/></linearGradient><linearGradient x1="0.1" y1="0" x2="0" y2="1" id="SvgjsLinearGradient2701"><stop stop-color="#263d85" offset="0"/><stop stop-color="#264d85" offset="0.4444444444444444"/></linearGradient><linearGradient x1="0.1" y1="0" x2="0" y2="1" id="SvgjsLinearGradient2702"><stop stop-color="#213675" offset="0"/><stop stop-color="#214475" offset="0.5555555555555556"/></linearGradient><linearGradient x1="0.1" y1="0" x2="0" y2="1" id="SvgjsLinearGradient2703"><stop stop-color="#1d2e65" offset="0"/><stop stop-color="#1d3a65" offset="0.6666666666666666"/></linearGradient><linearGradient x1="0.1" y1="0" x2="0" y2="1" id="SvgjsLinearGradient2704"><stop stop-color="#182755" offset="0"/><stop stop-color="#183155" offset="0.7777777777777778"/></linearGradient><linearGradient x1="0.1" y1="0" x2="0" y2="1" id="SvgjsLinearGradient2705"><stop stop-color="#142046" offset="0"/><stop stop-color="#142846" offset="0.8888888888888888"/></linearGradient><clipPath id="SvgjsClipPath2706"><rect width="1920" height="1080"/></clipPath></defs></svg>