<svg xmlns="http://www.w3.org/2000/svg" version="1.1" xmlns:xlink="http://www.w3.org/1999/xlink" xmlns:svgjs="http://svgjs.dev/svgjs" style="overflow: hidden; height: 85vh;" viewBox="0 0 1920 1080" class="overflow-hidden rounded-md drop-shadow-lg transition duration-300"><rect width="1920" height="1080" fill="#2e60f9"></rect><g clip-path="url(&quot;#SvgjsClipPath2566&quot;)"><g transform="matrix(-2.112515728529184e-16,-1.15,1.15,-2.112515728529184e-16,320.2823295593264,1622.4746789932253)"><path d="M0,-1080C1.6067247008057681,-960.5482626554024,-8.713820853527277,-568.8672617906011,9.64034820483461,-363.28957593241404C27.994517263196496,-157.71189007422691,101.93661813053505,-48.12451754697611,110.12501435017131,153.46611514912274C118.31341056980757,355.0567478452216,83.106370092867,613.9814098310962,58.77072552265216,846.254220244179C34.43508095243732,1078.5270306572618,-26.0937321506757,1328.1453476683157,-35.88885307111772,1547.102977627619C-45.683973991559746,1766.0606075869225,-5.9814755118529535,2057.85049627127,0,2160L 1920 2160 L 1920 -1080 Z" fill="url(&quot;#SvgjsLinearGradient2557&quot;)"></path><path d="M213.33333333333331,-1080C214.62483034990598,-993.3492873993823,226.25304969144952,-726.8183231935465,221.08231543276924,-560.0957243962943C215.91158117408895,-393.37312559904206,195.6362031184648,-245.45521762378073,182.30892778125158,-79.66440721648675C168.98165244403836,86.12640319080722,134.86651162429604,256.58209794259926,141.11866340948984,434.6491380474696C147.37081519468364,612.7161781523399,200.9248969267918,791.6151200881803,219.82183849241443,988.7378334127354C238.71878005803705,1185.8605467372906,255.58173032973906,1422.175056896923,254.50031280322554,1617.3854179948005C253.41889527671202,1812.595779092678,220.19449657831535,2069.564236332467,213.33333333333331,2160L 1920 2160 L 1920 -1080 Z" fill="url(&quot;#SvgjsLinearGradient2558&quot;)"></path><path d="M426.66666666666663,-1080C408.9837732379779,-966.6282130942268,314.8049778161949,-624.1148503935352,320.56930609453445,-399.76927856536093C326.33363437287403,-175.42370673718668,453.7147111947149,59.381266665251104,461.2526363367041,266.0734309690455C468.7905614786933,472.76559527283985,362.17605863444135,625.1443285548654,365.7968569464697,840.3837072574054C369.41765525849803,1055.6230859599452,472.83245792217474,1337.5736543938524,482.97742620887425,1557.509703184285C493.12239449557376,1777.4457519747175,436.05179325703455,2059.584950530714,426.66666666666663,2160L 1920 2160 L 1920 -1080 Z" fill="url(&quot;#SvgjsLinearGradient2559&quot;)"></path><path d="M640,-1080C635.0002456153233,-996.7936450700362,599.0582824633487,-717.6429256263941,610.0014736919395,-580.7618704202168C620.9446649205303,-443.88081521403956,704.7300320895265,-394.79376850370886,705.6591473715443,-258.7136687629361C706.5882626535622,-122.6335690221633,641.8113877470612,82.3500145387456,615.5761653840468,235.71872802441993C589.3409430210324,389.08744151009427,562.777312252154,492.3252733438105,548.2478131934581,661.4986121511099C533.7183141347622,830.6719509584093,521.5502446014414,1084.8490876177507,528.3991710318714,1250.7587608682165C535.2480974623015,1416.6684341186824,570.7412336146842,1505.4164451319414,589.341371776039,1656.9566516539053C607.9415099373937,1808.4968581758692,631.5568952960065,2076.1594419423177,640,2160L 1920 2160 L 1920 -1080 Z" fill="url(&quot;#SvgjsLinearGradient2560&quot;)"></path><path d="M853.3333333333333,-1080C845.5313119985335,-1013.5087742360782,799.2810212380224,-832.8617643122263,806.521205324535,-681.0526454164693C813.7613894110476,-529.2435265207123,904.3695161753418,-317.1109131064427,896.7744378524089,-169.14528662545757C889.1793595294761,-21.17966014447248,773.4066080737629,92.11702799478952,760.950735386938,206.74111346944116C748.4948627001132,321.3651989440928,789.6755260493067,412.68500081447837,822.0392017314598,518.5992262224523C854.4028774136129,624.5134516304263,965.4554231982268,713.028484985997,955.1327894798566,842.2264659172848C944.8101557614864,971.4244468485726,786.0305191256432,1133.5657855186016,760.1033994212389,1293.787111810179C734.1762797168346,1454.0084381017566,784.0317489347484,1659.185608968446,799.5700712534308,1803.5544236667497C815.1083935721132,1947.9232383650533,844.3727896533495,2100.592403944458,853.3333333333333,2160L 1920 2160 L 1920 -1080 Z" fill="url(&quot;#SvgjsLinearGradient2561&quot;)"></path><path d="M1066.6666666666667,-1080C1075.729273891047,-972.1581954795095,1119.5684872855925,-611.2265230201516,1121.0423100129483,-432.9491728770571C1122.516132740304,-254.6718227339626,1090.4571169977617,-190.40277282760692,1075.5096030308011,-10.335899141433117C1060.5620890638406,169.7309745447407,1019.7441334951566,464.9750850536194,1031.357226211185,647.4520692399856C1042.9703189272134,829.9290534263517,1122.2599434128379,908.2361057220676,1145.1881593269718,1084.5260059767638C1168.1163752411057,1260.81590623146,1182.0134371393724,1525.9458050976239,1168.9265216959882,1705.1914707681633C1155.839606252604,1884.4371364387027,1083.7099758382203,2084.1985784613607,1066.6666666666667,2160L 1920 2160 L 1920 -1080 Z" fill="url(&quot;#SvgjsLinearGradient2562&quot;)"></path><path d="M1280,-1080C1271.4522549790747,-1016.5362578014796,1229.7467285762605,-854.9338083855948,1228.7135298744479,-699.2175468088772C1227.6803311726353,-543.5012852321595,1280.519050433962,-294.59125557628806,1273.800807789125,-145.70243053969375C1267.0825651442879,3.186394496900533,1180.9785127764908,41.8299717078946,1188.4040740054252,194.11540341068854C1195.8296352343596,346.40083511348246,1301.4166464151194,607.3427025851851,1318.354175162731,768.0101596770699C1335.2917039103427,928.6776167689546,1299.9905361635083,993.9798296452516,1290.0292464910954,1158.1201459619974C1280.0679568186824,1322.2604622787433,1260.2579782101031,1585.8720819045443,1258.586437128254,1752.8520575775447C1256.9148960464047,1919.832033250545,1276.4310728547089,2092.1420095962576,1280,2160L 1920 2160 L 1920 -1080 Z" fill="url(&quot;#SvgjsLinearGradient2563&quot;)"></path><path d="M1493.3333333333333,-1080C1478.6022171985749,-987.3704219539604,1388.3965449207462,-741.291459363464,1404.9466365247827,-524.2225317237627C1421.496728128819,-307.1536040840614,1586.3388261199484,-2.98140868548586,1592.6338829575514,222.41356583820806C1598.9289397951543,447.808540361902,1466.4383066761739,615.1409434148396,1442.7169775504008,828.1473154184007C1418.9956484246277,1041.1536874219619,1441.8698489057567,1278.476350429308,1450.3059082029122,1500.4517978595745C1458.7419675000676,1722.427245289841,1486.1620958115964,2050.0752996432625,1493.3333333333333,2160L 1920 2160 L 1920 -1080 Z" fill="url(&quot;#SvgjsLinearGradient2564&quot;)"></path><path d="M1706.6666666666665,-1080C1691.016430193079,-984.9831535469084,1603.2860246207326,-737.3488179188117,1612.7652478251418,-509.8989212814507C1622.244471029551,-282.4490246440897,1756.449507788611,61.105943772523375,1763.5420058931222,284.6993798241658C1770.6345039976334,508.2928158758083,1653.243485348347,624.0696112787609,1655.3202364522085,831.661695028404C1657.3969875560701,1039.253778778047,1767.4447741472156,1308.862164826758,1776.002512516292,1530.2518823220241C1784.5602508853683,1751.6415998172902,1718.2226409749373,2055.041980387004,1706.6666666666665,2160L 1920 2160 L 1920 -1080 Z" fill="url(&quot;#SvgjsLinearGradient2565&quot;)"></path></g></g><defs><linearGradient x1="0.1" y1="0" x2="0" y2="1" id="SvgjsLinearGradient2557"><stop stop-color="#2e60f9" offset="0"></stop><stop stop-color="#2e82f9" offset="0"></stop></linearGradient><linearGradient x1="0.1" y1="0" x2="0" y2="1" id="SvgjsLinearGradient2558"><stop stop-color="#1950f8" offset="0"></stop><stop stop-color="#1975f8" offset="0.1111111111111111"></stop></linearGradient><linearGradient x1="0.1" y1="0" x2="0" y2="1" id="SvgjsLinearGradient2559"><stop stop-color="#0741f4" offset="0"></stop><stop stop-color="#0768f4" offset="0.2222222222222222"></stop></linearGradient><linearGradient x1="0.1" y1="0" x2="0" y2="1" id="SvgjsLinearGradient2560"><stop stop-color="#063cdf" offset="0"></stop><stop stop-color="#0660df" offset="0.3333333333333333"></stop></linearGradient><linearGradient x1="0.1" y1="0" x2="0" y2="1" id="SvgjsLinearGradient2561"><stop stop-color="#0636ca" offset="0"></stop><stop stop-color="#0657ca" offset="0.4444444444444444"></stop></linearGradient><linearGradient x1="0.1" y1="0" x2="0" y2="1" id="SvgjsLinearGradient2562"><stop stop-color="#0530b4" offset="0"></stop><stop stop-color="#054db4" offset="0.5555555555555556"></stop></linearGradient><linearGradient x1="0.1" y1="0" x2="0" y2="1" id="SvgjsLinearGradient2563"><stop stop-color="#052b9f" offset="0"></stop><stop stop-color="#05459f" offset="0.6666666666666666"></stop></linearGradient><linearGradient x1="0.1" y1="0" x2="0" y2="1" id="SvgjsLinearGradient2564"><stop stop-color="#04258a" offset="0"></stop><stop stop-color="#043b8a" offset="0.7777777777777778"></stop></linearGradient><linearGradient x1="0.1" y1="0" x2="0" y2="1" id="SvgjsLinearGradient2565"><stop stop-color="#031f75" offset="0"></stop><stop stop-color="#033275" offset="0.8888888888888888"></stop></linearGradient><clipPath id="SvgjsClipPath2566"><rect width="1920" height="1080"></rect></clipPath></defs></svg>