<svg xmlns="http://www.w3.org/2000/svg" version="1.1" xmlns:xlink="http://www.w3.org/1999/xlink" xmlns:svgjs="http://svgjs.dev/svgjs" style="overflow: hidden; height: 85vh;" viewBox="0 0 1920 1080" class="overflow-hidden rounded-md drop-shadow-lg transition duration-300"><rect width="1920" height="1080" fill="#111860"></rect><g clip-path="url(&quot;#SvgjsClipPath1565&quot;)"><g transform="matrix(7.04171909509728e-17,1.15,-1.15,7.04171909509728e-17,1556.804344177246,-536.1749958038329)"><path d="M0,-1080C-7.693745016723317,-961.8170060495123,-59.668778155430054,-581.5117385481062,-46.1624701003399,-370.90203629707366C-32.65616204524975,-160.2923340460411,59.18170741300351,-23.264069549901222,81.03784833054092,183.65821350619547C102.89398924807834,390.5804965622922,97.61671589569562,641.6783995607077,84.97437540488457,870.6316620395065C72.33203491407352,1099.5849245183053,19.34620128648873,1342.483065385573,5.183805385674631,1557.3777883789885C-8.978590515139464,1772.272511372404,0.8639675642791053,2059.5629647298315,0,2160L 1920 2160 L 1920 -1080 Z" fill="url(&quot;#SvgjsLinearGradient1553&quot;)"></path><path d="M160,-1080C172.74767851798546,-1009.1636554674121,239.06741020612859,-799.3843017554046,236.48607110791275,-654.9819328044728C233.90473200969691,-510.5795638535409,149.30321421029947,-386.1431698432938,144.51196541070505,-213.58578629440902C139.72071661111062,-41.02840274552423,214.44863229431118,205.7429407419514,207.73857831034624,380.362368488836C201.0285243263813,554.9817962357206,126.5831054759909,679.5078675645817,104.25164150691546,834.1307801868986C81.92017753784002,988.7536928092155,77.96166329397232,1160.9999738996185,73.74979449589358,1308.0998442227374C69.53792569781484,1455.1997145458563,64.60539446775866,1574.7466428294013,78.98042871844306,1716.7300021256117C93.35546296912747,1858.7133614218221,146.4967381197405,2086.121667020935,160,2160L 1920 2160 L 1920 -1080 Z" fill="url(&quot;#SvgjsLinearGradient1554&quot;)"></path><path d="M320,-1080C330.5326630008515,-975.1687328158449,383.12219310473677,-640.3918459250949,383.19597800510917,-451.0123968950694C383.26976290548157,-261.6329478650439,330.08266410299444,-106.62146646653736,320.44270940223436,56.276694180153385C310.80275470147427,219.17485482684413,340.8486084240368,340.38039645582114,325.35624980054877,526.376566985075C309.86389117706074,712.3727375143288,242.80974145612413,992.5934603071671,227.48855766130606,1172.2537173556766C212.167373866488,1351.913974404186,218.01057330852464,1439.7137288354113,233.4291470316403,1604.338109276132C248.84772075475595,1768.9624897168526,305.5715245052734,2067.389684879355,320,2160L 1920 2160 L 1920 -1080 Z" fill="url(&quot;#SvgjsLinearGradient1555&quot;)"></path><path d="M480,-1080C471.3556379594089,-988.8663681418268,421.0010507953836,-717.3979235788861,428.13382775645334,-533.198208850961C435.2666047175231,-348.9984941230359,510.10218318153625,-148.8216213655148,522.7966617664184,25.198288367550646C535.4911403513006,199.2181981006161,513.0966689122961,346.465168589516,504.3006992657466,510.9212495474317C495.50472961919706,675.3773305053475,480.2144582535684,822.468022996938,470.0208438871215,1011.9347741150449C459.82722952067456,1201.4015252331517,441.4758203815852,1456.3775519419137,443.139013067065,1647.721756256073C444.80220575254475,1839.0659605702322,473.85650217784416,2074.6202927093454,480,2160L 1920 2160 L 1920 -1080 Z" fill="url(&quot;#SvgjsLinearGradient1556&quot;)"></path><path d="M640,-1080C649.8644413955175,-988.2140614498617,706.7711842689214,-702.6552205842858,699.186648373105,-529.2843686991703C691.6021124772885,-355.9135168140548,599.4476154532863,-215.8720040832095,594.4927846251018,-39.77488868930677C589.5379537969172,136.32222670459595,649.9003325063119,346.5358952746715,669.4576634039977,527.298323664246C689.0149943016835,708.0607520538206,705.2421909662211,857.1086673889521,711.8367700112167,1044.7996816481407C718.4313490562123,1232.4906959073292,720.9979326758408,1467.5776894940677,709.0251376739714,1653.4444092193776C697.0523426721019,1839.3111289446874,651.5041896123286,2075.5740682032297,640,2160L 1920 2160 L 1920 -1080 Z" fill="url(&quot;#SvgjsLinearGradient1557&quot;)"></path><path d="M800,-1080C807.4881799311604,-979.508204135692,858.4174314894007,-701.151577297338,844.9290795869621,-477.04922481415196C831.4407276845235,-252.94687233096596,735.9711390106962,49.10631431772606,719.0698885853685,264.61411489911586C702.1686381600408,480.12191548050566,720.816889977061,614.4314007508639,743.5215770349959,815.9975786741868C766.2262640929307,1017.5637565975097,845.8849404388104,1250.010778884751,855.2980109329777,1474.0111824390533C864.711081427145,1698.0115859933555,809.2163351554963,2045.6685304065088,800,2160L 1920 2160 L 1920 -1080 Z" fill="url(&quot;#SvgjsLinearGradient1558&quot;)"></path><path d="M960,-1080C952.7808474493805,-1017.5557620574295,915.7601260491331,-845.2654468527907,916.6850846962833,-705.3345723445774C917.6100433434335,-565.4036978363641,961.306152507083,-385.7590343066854,965.5497518829013,-240.41475295072058C969.7933512587197,-95.07047159475579,941.7399800969611,34.680424079268505,942.146680951193,166.7311157912114C942.553381805425,298.7818075031543,968.8671442389004,422.6892797498266,967.9899570082936,551.8893973209367C967.1127697776867,681.0895148920469,932.3259472456114,818.1374453173353,936.8835575675515,941.931821217872C941.4411678894917,1065.7261971184087,993.8529191777682,1157.227917618929,995.3356189399349,1294.6556527241567C996.8183187021016,1432.0833878293843,951.6690259638739,1622.27417396993,945.7797561405514,1766.498231849237C939.8904863172289,1910.7222897285442,957.6299593567586,2094.416371974873,960,2160L 1920 2160 L 1920 -1080 Z" fill="url(&quot;#SvgjsLinearGradient1559&quot;)"></path><path d="M1120,-1080C1128.9481899811867,-1003.500144510392,1164.7789898313101,-796.9871370903171,1173.6891398871205,-621.000867062352C1182.599289942931,-445.01459703438684,1185.0135628185283,-215.43051941020764,1173.4609003348628,-24.08237983220937C1161.9082378511973,167.2657597457889,1103.6629734215567,352.0244435811991,1104.373164985128,527.0879704056376C1105.0833565486992,702.1514972300762,1175.918579186784,844.9223108364018,1177.72204971629,1026.2987811144221C1179.525520245796,1207.6752513924425,1124.8143297815463,1426.3965889261633,1115.1939881621647,1615.3467920737596C1105.573646542783,1804.296995221356,1119.1989980270275,2069.2244653456264,1120,2160L 1920 2160 L 1920 -1080 Z" fill="url(&quot;#SvgjsLinearGradient1560&quot;)"></path><path d="M1280,-1080C1270.1901715117808,-963.2106452222162,1214.1553597662644,-606.7338393778609,1221.1410290706845,-379.2638713332971C1228.1266983751045,-151.79390328873333,1297.372875636079,68.69164051036353,1321.91401582652,284.81980826738277C1346.455156016961,500.947976024402,1388.9076685682287,724.3964269354035,1368.3878702133306,917.5051352088183C1347.8680718584326,1110.613843482233,1213.5265373993532,1236.3895804426745,1198.7952256971314,1443.4720579078714C1184.0639139949096,1650.5545353730683,1266.465870949522,2040.5786763179785,1280,2160L 1920 2160 L 1920 -1080 Z" fill="url(&quot;#SvgjsLinearGradient1561&quot;)"></path><path d="M1440,-1080C1452.1932566538642,-974.9025427477926,1500.2315926536148,-655.8822300317432,1513.1595399231846,-449.4152564867559C1526.0874871927545,-242.94828294176853,1541.015326787738,-64.46793778188413,1517.5676836174196,158.80184126992407C1494.120040447101,382.07162032173227,1382.009192824556,674.8909023087677,1372.473680901273,890.2034178240932C1362.9381689779898,1105.5159333394186,1449.1002255612655,1239.0441706658921,1460.35461207772,1450.6769343618766C1471.6089985941746,1662.3096980578612,1443.3924353462867,2041.7794890603127,1440,2160L 1920 2160 L 1920 -1080 Z" fill="url(&quot;#SvgjsLinearGradient1562&quot;)"></path><path d="M1600,-1080C1608.6862752517018,-961.572900076037,1644.7721750091896,-583.9450598411223,1652.117651510211,-369.43740045622155C1659.4631280112326,-154.9297410713208,1643.4814599773183,14.408446492444114,1644.072859006129,207.0459563094047C1644.6642580349396,399.68346612636526,1672.1915627657281,582.4768941740871,1655.666045683075,786.387658445542C1639.140528600422,990.2984227169969,1554.1974307907228,1201.575151679058,1544.9197565102104,1430.5105419381343C1535.642082229698,1659.4459321972106,1590.8199594183684,2038.4184236563558,1600,2160L 1920 2160 L 1920 -1080 Z" fill="url(&quot;#SvgjsLinearGradient1563&quot;)"></path><path d="M1760,-1080C1770.222054387459,-1014.1067332780137,1808.1669023534794,-828.488689215044,1821.3323263247532,-684.6403996680822C1834.497750296027,-540.7921101211203,1834.5073279950439,-361.0543905450694,1838.9925438276434,-216.91026271822875C1843.477759660243,-72.7661348913881,1856.745215329519,67.58807815771807,1848.2436213203503,180.22436729296163C1839.7420273111816,292.8606564282052,1804.6716673967376,319.9316182463473,1787.9829797726318,458.9074720932326C1771.294292148526,597.883325940118,1744.7974193766775,868.8388096616836,1748.111495575715,1014.079490374274C1751.4255717747526,1159.3201710868643,1810.2198265740114,1196.7562344049034,1807.8674369668574,1330.351556368775C1805.5150473597034,1463.9468783326465,1741.9750640939342,1677.3766815522988,1733.9971579327912,1815.651422157503C1726.0192517716482,1953.9261627627072,1755.6661929887985,2102.6085703595836,1760,2160L 1920 2160 L 1920 -1080 Z" fill="url(&quot;#SvgjsLinearGradient1564&quot;)"></path></g></g><defs><linearGradient x1="0.1" y1="0" x2="0" y2="1" id="SvgjsLinearGradient1553"><stop stop-color="#111860" offset="0"></stop><stop stop-color="#112560" offset="0"></stop></linearGradient><linearGradient x1="0.1" y1="0" x2="0" y2="1" id="SvgjsLinearGradient1554"><stop stop-color="#172080" offset="0"></stop><stop stop-color="#173180" offset="0.08333333333333333"></stop></linearGradient><linearGradient x1="0.1" y1="0" x2="0" y2="1" id="SvgjsLinearGradient1555"><stop stop-color="#1c28a0" offset="0"></stop><stop stop-color="#1c3ea0" offset="0.16666666666666666"></stop></linearGradient><linearGradient x1="0.1" y1="0" x2="0" y2="1" id="SvgjsLinearGradient1556"><stop stop-color="#2230c0" offset="0"></stop><stop stop-color="#224ac0" offset="0.25"></stop></linearGradient><linearGradient x1="0.1" y1="0" x2="0" y2="1" id="SvgjsLinearGradient1557"><stop stop-color="#2d3cda" offset="0"></stop><stop stop-color="#2d59da" offset="0.3333333333333333"></stop></linearGradient><linearGradient x1="0.1" y1="0" x2="0" y2="1" id="SvgjsLinearGradient1558"><stop stop-color="#4d5adf" offset="0"></stop><stop stop-color="#4d72df" offset="0.4166666666666667"></stop></linearGradient><linearGradient x1="0.1" y1="0" x2="0" y2="1" id="SvgjsLinearGradient1559"><stop stop-color="#6d77e5" offset="0"></stop><stop stop-color="#6d8be5" offset="0.5"></stop></linearGradient><linearGradient x1="0.1" y1="0" x2="0" y2="1" id="SvgjsLinearGradient1560"><stop stop-color="#8d95eb" offset="0"></stop><stop stop-color="#8da5eb" offset="0.5833333333333334"></stop></linearGradient><linearGradient x1="0.1" y1="0" x2="0" y2="1" id="SvgjsLinearGradient1561"><stop stop-color="#acb2f0" offset="0"></stop><stop stop-color="#acbdf0" offset="0.6666666666666666"></stop></linearGradient><linearGradient x1="0.1" y1="0" x2="0" y2="1" id="SvgjsLinearGradient1562"><stop stop-color="#ccd0f6" offset="0"></stop><stop stop-color="#ccd7f6" offset="0.75"></stop></linearGradient><linearGradient x1="0.1" y1="0" x2="0" y2="1" id="SvgjsLinearGradient1563"><stop stop-color="#ecedfc" offset="0"></stop><stop stop-color="#ecf0fc" offset="0.8333333333333334"></stop></linearGradient><linearGradient x1="0.1" y1="0" x2="0" y2="1" id="SvgjsLinearGradient1564"><stop stop-color="#ffffff" offset="0"></stop><stop stop-color="#ffffff" offset="0.9166666666666666"></stop></linearGradient><clipPath id="SvgjsClipPath1565"><rect width="1920" height="1080"></rect></clipPath></defs></svg>